<svg width="71" height="19" viewBox="0 0 71 19" fill="none" xmlns="http://www.w3.org/2000/svg">
<path d="M1 3.76823C13.5506 2.35005 26.8965 2.54586 39.6377 1.79416C45.9435 1.42214 64.9291 0.740272 58.6216 1.10324C52.5316 1.45368 46.5538 2.33334 40.5757 3.02795C33.1825 3.887 25.5827 4.28151 18.2865 5.37216C14.3947 5.95391 2.71233 7.06626 6.71749 7.32155C13.044 7.72482 19.9357 7.32155 26.282 7.32155C35.4896 7.32155 44.7275 7.20282 53.9314 7.37091C58.5905 7.45599 64.7001 7.50353 68.8058 8.99951C73.7034 10.784 62.0701 14.6442 60.2743 15.4893C54.1341 18.3788 61.9572 17.9815 66.1258 17.9815" stroke="#94A3B8" stroke-width="2" stroke-linecap="round"/>
</svg>
